<svg width="768" height="768" viewBox="0 0 768 768" fill="none" xmlns="http://www.w3.org/2000/svg">
<path fill-rule="evenodd" clip-rule="evenodd" d="M557.581 682.328L663.024 377.428C682.693 328.137 689.249 288.782 689.249 253.809C689.249 241.134 688.39 229.32 686.907 218.288C713.834 267.423 729.21 323.912 729.21 383.922C729.21 511.296 660.215 622.474 557.581 682.328ZM431.532 222.044C452.293 220.949 471.024 218.758 471.024 218.758C489.6 216.567 487.415 189.183 468.839 190.279C468.839 190.279 412.956 194.66 376.819 194.66C342.868 194.66 285.893 190.279 285.893 190.279C267.239 189.183 265.132 217.663 283.707 218.758C283.707 218.758 301.346 220.949 319.922 222.044L373.698 369.447L298.146 596.029L172.41 222.044C193.249 220.949 211.902 218.758 211.902 218.758C230.478 216.567 228.293 189.183 209.717 190.279C209.717 190.279 153.834 194.66 117.698 194.66C111.22 194.66 103.571 194.504 95.4537 194.269C157.268 100.616 263.337 38.7286 384 38.7286C473.912 38.7286 555.707 73.0758 617.132 129.408C615.649 129.33 614.166 129.095 612.683 129.095C578.732 129.095 554.693 158.67 554.693 190.357C554.693 218.836 571.083 242.856 588.644 271.335C601.756 294.337 617.132 323.834 617.132 366.553C617.132 396.127 608.39 433.291 590.829 478.2L556.41 593.291L431.61 222.2L431.532 222.044ZM384 729.193C350.127 729.193 317.424 724.186 286.439 715.11L390.01 414.122L496.156 704.861C496.859 706.582 497.717 708.147 498.654 709.633C462.751 722.23 424.195 729.193 384 729.193ZM38.7122 383.922C38.7122 333.848 49.4829 286.357 68.6049 243.403L233.288 694.611C118.088 638.67 38.7122 520.606 38.7122 383.922ZM384 0C172.254 0 0 172.284 0 384C0 595.716 172.254 768 384 768C595.746 768 768 595.716 768 384C768 172.284 595.746 0 384 0Z" fill="white"/>
</svg>
